<?xml version="1.0" encoding="UTF-8"?>
<svg width="32px" height="32px" viewBox="0 0 32 32" version="1.1" xmlns="http://www.w3.org/2000/svg" xmlns:xlink="http://www.w3.org/1999/xlink">
    <!-- Generator: Sketch 45 (43475) - http://www.bohemiancoding.com/sketch -->
    <title>icons/sm-linkedIn</title>
    <desc>Created with Sketch.</desc>
    <defs></defs>
    <g id="Symbol_page" stroke="none" stroke-width="1" fill="none" fill-rule="evenodd">
        <g id="icons/sm-linkedIn">
            <g id="icon/sm-linkedIn">
                <g id="icons/socialMedia/Linked-in">
                    <g id="Group-5" stroke="#505050">
                        <rect id="Rectangle" x="0" y="0" width="32" height="32"></rect>
                    </g>
                    <path d="M6,23.1453424 L10.0372358,23.1453424 L10.0372358,11 L6,11 L6,23.1453424 Z M8.28537574,5 C6.90371823,5 6,5.90625836 6,7.09801899 C6,8.26380894 6.87757237,9.19757081 8.23177016,9.19757081 L8.25874813,9.19757081 C9.66716464,9.19757081 10.5430728,8.26398412 10.5430728,7.09801899 C10.5165328,5.90625836 9.66716464,5 8.28537574,5 L8.28537574,5 Z M25.3270495,16.4664552 L25.3270495,23.4306694 L21.2896385,23.4306694 L21.2896385,16.9328762 C21.2896385,15.3005776 20.7056705,14.1865976 19.2442616,14.1865976 C18.1286612,14.1865976 17.4647666,14.9373385 17.172695,15.6635539 C17.0661846,15.9231731 17.0387687,16.284529 17.0387687,16.6479433 L17.0387687,23.4306694 L13,23.4306694 C13,23.4306694 13.0543939,12.4255405 13,11.2853271 L17.0383745,11.2853271 L17.0383745,13.0068807 C17.0301848,13.0197566 17.0195425,13.0336397 17.0118345,13.0461214 L17.0383745,13.0461214 L17.0383745,13.0068807 C17.574912,12.1805052 18.5331118,11 20.6778604,11 C23.3350592,10.9999562 25.3270495,12.7358748 25.3270495,16.4664552 L25.3270495,16.4664552 Z" id="Page-1" fill="#505050"></path>
                </g>
            </g>
        </g>
    </g>
</svg>