<svg xmlns="http://www.w3.org/2000/svg" xmlns:xlink="http://www.w3.org/1999/xlink" width="20mm" height="21mm" viewBox="0 0 58 58"><defs><linearGradient id="a" x1="39.38" y1="47.88" x2="65.64" y2="10.38" gradientUnits="userSpaceOnUse"><stop offset="0" stop-color="#505559"/><stop offset="0.33" stop-color="#a5b3bb"/><stop offset="0.41" stop-color="#a7b5bd"/><stop offset="0.45" stop-color="#aebbc2"/><stop offset="0.48" stop-color="#bbc5cb"/><stop offset="0.5" stop-color="#ccd4d8"/><stop offset="0.5" stop-color="#cdd5d9"/><stop offset="0.55" stop-color="#b9c4ca"/><stop offset="0.61" stop-color="#aab7bf"/><stop offset="0.66" stop-color="#a5b3bb"/><stop offset="1" stop-color="#7c8388"/></linearGradient><linearGradient id="b" x1="30.3" y1="9.56" x2="48.56" y2="0.66" gradientUnits="userSpaceOnUse"><stop offset="0" stop-color="#32ab76"/><stop offset="0.15" stop-color="#79c0a1"/><stop offset="0.26" stop-color="#aacebf"/><stop offset="0.33" stop-color="#88c4aa"/><stop offset="0.48" stop-color="#33ab76"/><stop offset="0.48" stop-color="#32ab76"/><stop offset="0.52" stop-color="#2ca26c"/><stop offset="0.64" stop-color="#19864e"/><stop offset="0.77" stop-color="#0b7238"/><stop offset="0.89" stop-color="#03662b"/><stop offset="1" stop-color="#006227"/></linearGradient><linearGradient id="c" x1="38.2" y1="57.87" x2="52.58" y2="50.86" xlink:href="#b"/><linearGradient id="d" x1="16.97" y1="50.59" x2="-5.86" y2="7.64" xlink:href="#a"/><linearGradient id="e" x1="5.49" y1="50.86" x2="19.88" y2="57.87" gradientUnits="userSpaceOnUse"><stop offset="0" stop-color="#006227"/><stop offset="0.14" stop-color="#03662b"/><stop offset="0.29" stop-color="#0b7238"/><stop offset="0.44" stop-color="#19864e"/><stop offset="0.6" stop-color="#2ca26c"/><stop offset="0.64" stop-color="#32ab76"/><stop offset="0.65" stop-color="#33ab76"/><stop offset="0.89" stop-color="#88c4aa"/><stop offset="1" stop-color="#aacebf"/></linearGradient><linearGradient id="f" x1="8.72" y1="2.21" x2="20.28" y2="7.85" xlink:href="#e"/></defs><title>Element 1</title><path d="M47,51c0,2,0,3,2,4l6,3c4,2,3-3,3-3V9s0-3-2-5L51,1c-4-3-4,1-4,1S47,50,47,51Z" style="fill:url(#a)"/><path d="M47,2s0-2,1-2H33c-4,0-4,1-4,5s0,5,4,5H47Z" style="fill:url(#b)"/><path d="M55,58l-6-3c-2-1-2-2-2-4V48H41c-4,0-4,1-4,5s0,5,4,5H55Z" style="fill:url(#c)"/><path d="M11,51c0,2,0,3-2,4L3,58c-4,2-3-3-3-3V9S0,5,2,4L7,1c4-3,4,1,4,1S11,50,11,51Z" style="fill:url(#d)"/><path d="M3,58l6-3c2-1,2-2,2-4V48h6c4,0,4,1,4,5s0,5-4,5H3Z" style="fill:url(#e)"/><path d="M11,2s0-2-1-2h6c4,0,4,1,4,5s0,5-4,5H11Z" style="fill:url(#f)"/></svg>